<mxfile host="65bd71144e">
    <diagram id="zb_ROZ6RvvEKENQEIF-X" name="Page-1">
        <mxGraphModel dx="682" dy="659" grid="1" gridSize="10" guides="1" tooltips="1" connect="1" arrows="1" fold="1" page="1" pageScale="1" pageWidth="827" pageHeight="1169" math="0" shadow="0">
            <root>
                <mxCell id="0"/>
                <mxCell id="1" parent="0"/>
                <mxCell id="2" value="Hardware" style="swimlane;horizontal=0;whiteSpace=wrap;html=1;fillColor=#f5f5f5;strokeColor=#666666;fontColor=#333333;labelBackgroundColor=none;gradientColor=none;rounded=0;shadow=0;glass=0;strokeWidth=2;" parent="1" vertex="1">
                    <mxGeometry x="10" y="330" width="660" height="120" as="geometry">
                        <mxRectangle x="40" y="420" width="40" height="80" as="alternateBounds"/>
                    </mxGeometry>
                </mxCell>
                <mxCell id="12" value="Cockpit" style="swimlane;whiteSpace=wrap;html=1;shadow=0;" parent="2" vertex="1">
                    <mxGeometry x="70" y="10" width="120" height="100" as="geometry"/>
                </mxCell>
                <mxCell id="36" value="Steer / Accel / Brake" style="rounded=1;whiteSpace=wrap;html=1;" parent="12" vertex="1">
                    <mxGeometry x="10" y="30" width="100" height="30" as="geometry"/>
                </mxCell>
                <mxCell id="37" value="Dashboard" style="rounded=1;whiteSpace=wrap;html=1;" parent="12" vertex="1">
                    <mxGeometry x="10" y="70" width="100" height="20" as="geometry"/>
                </mxCell>
                <mxCell id="26" value="Peripherials" style="swimlane;whiteSpace=wrap;html=1;" parent="2" vertex="1">
                    <mxGeometry x="230" y="10" width="120" height="100" as="geometry"/>
                </mxCell>
                <mxCell id="34" value="RTD Light / Sound / Buttons" style="rounded=1;whiteSpace=wrap;html=1;" parent="26" vertex="1">
                    <mxGeometry x="10" y="30" width="100" height="30" as="geometry"/>
                </mxCell>
                <mxCell id="35" value="Brake Light" style="rounded=1;whiteSpace=wrap;html=1;" parent="26" vertex="1">
                    <mxGeometry x="10" y="70" width="100" height="20" as="geometry"/>
                </mxCell>
                <mxCell id="38" value="Sensors" style="swimlane;whiteSpace=wrap;html=1;" parent="2" vertex="1">
                    <mxGeometry x="390" y="10" width="230" height="100" as="geometry"/>
                </mxCell>
                <mxCell id="39" value="GPS" style="rounded=1;whiteSpace=wrap;html=1;" parent="38" vertex="1">
                    <mxGeometry x="10" y="30" width="45" height="20" as="geometry"/>
                </mxCell>
                <mxCell id="41" value="Suspension Travel" style="rounded=1;whiteSpace=wrap;html=1;" parent="38" vertex="1">
                    <mxGeometry x="10" y="60" width="100" height="30" as="geometry"/>
                </mxCell>
                <mxCell id="40" value="IMU" style="rounded=1;whiteSpace=wrap;html=1;" parent="38" vertex="1">
                    <mxGeometry x="65" y="30" width="45" height="20" as="geometry"/>
                </mxCell>
                <mxCell id="42" value="Wheel Speed" style="rounded=1;whiteSpace=wrap;html=1;" parent="38" vertex="1">
                    <mxGeometry x="120" y="30" width="100" height="20" as="geometry"/>
                </mxCell>
                <mxCell id="43" value="Power" style="rounded=1;whiteSpace=wrap;html=1;" parent="38" vertex="1">
                    <mxGeometry x="120" y="65" width="100" height="20" as="geometry"/>
                </mxCell>
                <mxCell id="3" value="OS / Middleware" style="swimlane;horizontal=0;whiteSpace=wrap;html=1;startSize=23;fillColor=#f5f5f5;fontColor=#333333;strokeColor=#666666;strokeWidth=2;" parent="1" vertex="1">
                    <mxGeometry x="10" y="150" width="660" height="130" as="geometry"/>
                </mxCell>
                <mxCell id="49" value="Kernel" style="swimlane;whiteSpace=wrap;html=1;startSize=23;" parent="3" vertex="1">
                    <mxGeometry x="30" y="10" width="120" height="110" as="geometry"/>
                </mxCell>
                <mxCell id="50" value="Thread" style="rounded=1;whiteSpace=wrap;html=1;" parent="49" vertex="1">
                    <mxGeometry x="10" y="30" width="45" height="20" as="geometry"/>
                </mxCell>
                <mxCell id="51" value="Workqueue" style="rounded=1;whiteSpace=wrap;html=1;" parent="49" vertex="1">
                    <mxGeometry x="10" y="55" width="100" height="20" as="geometry"/>
                </mxCell>
                <mxCell id="53" value="Synchron&lt;span style=&quot;background-color: transparent;&quot;&gt;ization&lt;/span&gt;" style="rounded=1;whiteSpace=wrap;html=1;" parent="49" vertex="1">
                    <mxGeometry x="10" y="80" width="100" height="20" as="geometry"/>
                </mxCell>
                <mxCell id="63" value="Timer" style="rounded=1;whiteSpace=wrap;html=1;" vertex="1" parent="49">
                    <mxGeometry x="65" y="30" width="45" height="20" as="geometry"/>
                </mxCell>
                <mxCell id="54" value="Utilities" style="swimlane;whiteSpace=wrap;html=1;" parent="3" vertex="1">
                    <mxGeometry x="160" y="10" width="120" height="110" as="geometry"/>
                </mxCell>
                <mxCell id="55" value="Shell" style="rounded=1;whiteSpace=wrap;html=1;" parent="54" vertex="1">
                    <mxGeometry x="65" y="30" width="45" height="20" as="geometry"/>
                </mxCell>
                <mxCell id="56" value="Logging" style="rounded=1;whiteSpace=wrap;html=1;" parent="54" vertex="1">
                    <mxGeometry x="10" y="30" width="45" height="20" as="geometry"/>
                </mxCell>
                <mxCell id="62" value="RTC" style="rounded=1;whiteSpace=wrap;html=1;" vertex="1" parent="54">
                    <mxGeometry x="10" y="55" width="100" height="20" as="geometry"/>
                </mxCell>
                <mxCell id="60" value="File System" style="rounded=1;whiteSpace=wrap;html=1;" vertex="1" parent="54">
                    <mxGeometry x="10" y="80" width="100" height="20" as="geometry"/>
                </mxCell>
                <mxCell id="57" value="Communication" style="swimlane;whiteSpace=wrap;html=1;" parent="3" vertex="1">
                    <mxGeometry x="420" y="10" width="230" height="110" as="geometry"/>
                </mxCell>
                <mxCell id="58" value="ZBus" style="rounded=1;whiteSpace=wrap;html=1;" parent="57" vertex="1">
                    <mxGeometry x="10" y="40" width="100" height="20" as="geometry"/>
                </mxCell>
                <mxCell id="59" value="Telemetry" style="rounded=1;whiteSpace=wrap;html=1;" parent="57" vertex="1">
                    <mxGeometry x="120" y="40" width="100" height="20" as="geometry"/>
                </mxCell>
                <mxCell id="64" value="Data Aggregation" style="rounded=1;whiteSpace=wrap;html=1;" vertex="1" parent="57">
                    <mxGeometry x="10" y="70" width="100" height="20" as="geometry"/>
                </mxCell>
                <mxCell id="61" value="Command" style="rounded=1;whiteSpace=wrap;html=1;" vertex="1" parent="57">
                    <mxGeometry x="120" y="70" width="100" height="20" as="geometry"/>
                </mxCell>
                <mxCell id="44" value="Protocols" style="swimlane;whiteSpace=wrap;html=1;startSize=23;" parent="3" vertex="1">
                    <mxGeometry x="290" y="10" width="120" height="110" as="geometry"/>
                </mxCell>
                <mxCell id="45" value="CAN Open" style="rounded=1;whiteSpace=wrap;html=1;" parent="44" vertex="1">
                    <mxGeometry x="10" y="40" width="100" height="20" as="geometry"/>
                </mxCell>
                <mxCell id="46" value="USB ACM / MSC" style="rounded=1;whiteSpace=wrap;html=1;" parent="44" vertex="1">
                    <mxGeometry x="10" y="70" width="100" height="20" as="geometry"/>
                </mxCell>
                <mxCell id="5" value="Application" style="swimlane;horizontal=0;whiteSpace=wrap;html=1;strokeWidth=2;fillColor=#f5f5f5;fontColor=#333333;strokeColor=#666666;" parent="1" vertex="1">
                    <mxGeometry x="10" y="10" width="660" height="130" as="geometry"/>
                </mxCell>
                <mxCell id="66" value="Control" style="swimlane;whiteSpace=wrap;html=1;startSize=23;" vertex="1" parent="5">
                    <mxGeometry x="150" y="10" width="120" height="110" as="geometry"/>
                </mxCell>
                <mxCell id="67" value="State Machine" style="rounded=1;whiteSpace=wrap;html=1;" vertex="1" parent="66">
                    <mxGeometry x="10" y="40" width="100" height="20" as="geometry"/>
                </mxCell>
                <mxCell id="68" value="Vehicle Control" style="rounded=1;whiteSpace=wrap;html=1;" vertex="1" parent="66">
                    <mxGeometry x="10" y="70" width="100" height="20" as="geometry"/>
                </mxCell>
                <mxCell id="69" value="Dashboard" style="swimlane;whiteSpace=wrap;html=1;startSize=23;" vertex="1" parent="5">
                    <mxGeometry x="410" y="10" width="120" height="110" as="geometry"/>
                </mxCell>
                <mxCell id="70" value="Segment Displays" style="rounded=1;whiteSpace=wrap;html=1;" vertex="1" parent="69">
                    <mxGeometry x="10" y="30" width="100" height="20" as="geometry"/>
                </mxCell>
                <mxCell id="71" value="Display" style="rounded=1;whiteSpace=wrap;html=1;" vertex="1" parent="69">
                    <mxGeometry x="10" y="80" width="100" height="20" as="geometry"/>
                </mxCell>
                <mxCell id="72" value="LEDs" style="rounded=1;whiteSpace=wrap;html=1;" vertex="1" parent="69">
                    <mxGeometry x="10" y="55" width="100" height="20" as="geometry"/>
                </mxCell>
                <mxCell id="48" value="&lt;b&gt;Driver / Hardware Abstraction&lt;/b&gt;" style="rounded=0;whiteSpace=wrap;html=1;fillColor=#f5f5f5;strokeColor=#666666;fontColor=#333333;strokeWidth=2;" parent="1" vertex="1">
                    <mxGeometry x="10" y="290" width="660" height="30" as="geometry"/>
                </mxCell>
            </root>
        </mxGraphModel>
    </diagram>
</mxfile>